# xmcd CD database file
#
# Track frame offsets:
#	150
#	12850
#	36010
#	56770
#	75210
#	92110
#	112517
#	131142
#	144532
#	160387
#	176042
#	192872
#	212445
#	231877
#	249737
#	268842
#	286305
#
# Disc length: 4111 seconds
#
# Revision: 2
# Processed by: cddbd v1.5PL3 Copyright (c) Steve Scherf et al.
# Submitted via: CDex 1.51
#
DISCID=e7100d11
DTITLE=Leann Rimes - Sittin' On Top of The World
DYEAR=1998
DGENRE=Country
TTITLE0=Blue
TTITLE1=How Do I Live
TTITLE2=Commitment
TTITLE3=Looking Through Your Eyes (from 'The Magic Sword' Movie)
TTITLE4=Undeniable
TTITLE5=Feels Like Home
TTITLE6=Surrender
TTITLE7=These Arms of Mine
TTITLE8=Nothin' New Under The Moon
TTITLE9=When Am I Gonna Get Over You
TTITLE10=Rock Me
TTITLE11=More Than Anyone Deserves
TTITLE12=Insensitive
TTITLE13=All The Lovin' And Hurtin'
TTITLE14=Sittin' On Top of The World
TTITLE15=The Heart Never Forgets
TTITLE16=Purple Rain
EXTD=YEAR: 1998
EXTT0=
EXTT1=
EXTT2=
EXTT3=
EXTT4=
EXTT5=
EXTT6=
EXTT7=
EXTT8=
EXTT9=
EXTT10=
EXTT11=
EXTT12=
EXTT13=
EXTT14=
EXTT15=
EXTT16=
PLAYORDER=
